<?xml version="1.0" encoding="UTF-8" standalone="no"?>
<!-- Created with Inkscape (http://www.inkscape.org/) -->

<svg
   width="96"
   height="96"
   viewBox="0 0 25.399999 25.4"
   version="1.1"
   id="svg1"
   inkscape:version="1.3.2 (1:1.3.2+202311252150+091e20ef0f)"
   sodipodi:docname="logo.svg"
   xmlns:inkscape="http://www.inkscape.org/namespaces/inkscape"
   xmlns:sodipodi="http://sodipodi.sourceforge.net/DTD/sodipodi-0.dtd"
   xmlns="http://www.w3.org/2000/svg"
   xmlns:svg="http://www.w3.org/2000/svg">
  <sodipodi:namedview
     id="namedview1"
     pagecolor="#505050"
     bordercolor="#eeeeee"
     borderopacity="1"
     inkscape:showpageshadow="0"
     inkscape:pageopacity="0"
     inkscape:pagecheckerboard="0"
     inkscape:deskcolor="#505050"
     inkscape:document-units="px"
     inkscape:zoom="5.25"
     inkscape:cx="45.904762"
     inkscape:cy="48"
     inkscape:window-width="1318"
     inkscape:window-height="704"
     inkscape:window-x="0"
     inkscape:window-y="0"
     inkscape:window-maximized="1"
     inkscape:current-layer="layer3" />
  <defs
     id="defs1" />
  <g
     inkscape:label="BG"
     inkscape:groupmode="layer"
     id="layer1"
     sodipodi:insensitive="true">
    <rect
       style="fill:#1ca3ec;fill-opacity:1;stroke-width:0.265477"
       id="rect1"
       width="25.4"
       height="25.4"
       x="-1.3877788e-17"
       y="0" />
  </g>
  <g
     inkscape:groupmode="layer"
     id="layer3"
     inkscape:label="Drop">
    <path
       id="rect2"
       style="fill:#74ccf4;stroke-width:0.302694;fill-opacity:1"
       d="m 13.008835,0.66477186 0.02206,-0.00465 C 11.616068,0.31580136 22.352209,11.125293 19.591128,15.866279 17.229521,19.921338 8.6121987,20.297836 6.1439594,16.315268 3.165185,11.508935 13.080219,1.374968 13.008835,0.66477186 Z"
       sodipodi:nodetypes="ccaac" />
    <text
       xml:space="preserve"
       style="font-size:3.175px;fill:#0000ff;fill-opacity:1;stroke-width:0.264583"
       x="3.8337021"
       y="22.450014"
       id="text2"><tspan
         sodipodi:role="line"
         id="tspan2"
         style="fill:#0000ff;fill-opacity:1;stroke-width:0.264583"
         x="3.8337021"
         y="22.450014">MineWater</tspan></text>
    <path
       style="fill:#2389da;fill-opacity:1;stroke-width:0.264583"
       d="M 0.03897879,25.299797 3.0031388,20.240428"
       id="path2" />
    <path
       style="fill:#2389da;fill-opacity:1;stroke-width:0.264583"
       d="m 5.917099,22.987645 3.066135,-2.07316"
       id="path3" />
    <path
       style="fill:#2389da;fill-opacity:1;stroke-width:0.264583"
       d="M 0.12540147,25.279914 2.9882523,20.32131"
       id="path4" />
    <path
       style="fill:#74ccf4;fill-opacity:1;stroke-width:0.264583"
       d="m 0.81914525,24.560381 c -0.21869159,-0.665646 -0.0541817,-1.666423 0.30710565,-2.280063 0.1718619,-0.291904 0.4492342,-0.52267 0.6037776,-0.82702 0.042049,-0.08281 0.043125,-0.17339 0.097447,-0.255527 0.073262,-0.110775 0.1823326,-0.21073 0.2718672,-0.30809 0.063905,-0.06949 0.09276,-0.168258 0.1594587,-0.241945 0.053893,-0.05954 0.5090577,-0.173681 0.5695235,-0.180326 0.1605849,-0.01765 0.4471971,-0.04434 0.6008245,0.0071 0.6559243,0.219585 0.4960607,1.197845 0.584879,1.702074 0.038709,0.219751 0.097824,0.461224 0.1911535,0.662836 0.022029,0.04759 0.00364,0.105992 0.020473,0.154734 0.05175,0.14985 0.2423727,0.305864 0.3956939,0.320492 0.1986534,0.01895 0.6122281,0.0526 0.796703,-0.0087 0.073879,-0.02453 0.1360358,-0.08708 0.2070995,-0.111227 0.1345075,-0.04571 0.2067925,-0.02737 0.313799,-0.165956 0.058144,-0.0753 0.078341,-0.201786 0.1295355,-0.286828 0.1015947,-0.168765 0.2206693,-0.303817 0.2905691,-0.489204 0.03082,-0.08174 0.091146,-0.139796 0.1116211,-0.229739 0.010435,-0.04583 -0.014465,-0.447153 0.07028,-0.454162 0.073781,-0.0061 0.1135859,0.01219 0.1752079,0.08564 0.050666,0.06038 -0.012586,0.29323 0,0.376598 0.030347,0.201033 0.089569,0.381522 0.1419378,0.572082 0.019688,0.07164 -0.016476,0.238397 0.025593,0.302972 0.00357,0.0055 0.061186,0.0349 0.069099,0.0376 0.1178626,0.0402 1.2584144,0.06013 1.3542177,0.02992 0.1792917,-0.05652 0.2793733,-0.161786 0.3980563,-0.294506 0.0037,-0.0041 0.084064,3.7e-4 0.085832,0 0.2296359,-0.04795 0.4252516,0.07486 0.6094868,0.01319 0.1462246,-0.04895 0.1126961,-0.226902 0.2159582,-0.252575 0.2251263,-0.05597 0.4460673,0.212602 0.7516213,0.186626 0.437111,-0.03716 0.880886,0.01749 1.318192,-0.01575 0.172415,-0.01311 0.147018,-0.221513 0.366952,-0.179735 0.195774,0.03719 0.312404,0.242392 0.490779,0.307302 0.04253,0.01548 0.121094,0 0.166348,0 0.05818,0 0.148012,0.02741 0.199816,0.01457 0.17043,-0.04224 0.126988,-0.198437 0.421089,-0.198437 0.16425,0 0.402218,0.111222 0.611259,0.126582 0.102124,0.0075 0.405484,0.06313 0.500818,0.01693 0.01989,-0.0096 0.03037,-0.05802 0.05158,-0.07205 0.06575,-0.04352 0.407509,-0.02834 0.479163,0.0014 0.106277,0.04408 0.177412,0.134424 0.275411,0.191744 0.164403,0.09616 0.371126,-0.08581 0.495897,-0.109259 0.07023,-0.0132 0.193001,-0.0023 0.25789,0.0085 0.381242,0.0633 0.577815,0.491633 0.986479,0.422665 0.233764,-0.03945 0.4268,-0.326475 0.651812,-0.416168 0.132284,-0.05273 0.396017,-0.05253 0.525426,0.0045 0.06315,0.02784 0.104076,0.09427 0.168121,0.119889 0.05127,0.02051 0.305497,0.02387 0.353959,0 0.126289,-0.06219 0.171926,-0.264587 0.319704,-0.323248 0.159745,-0.06341 0.519374,0.0093 0.681932,0.03977 0.147585,0.0277 0.358447,0.03713 0.506528,0.01713 0.07158,-0.0097 0.116966,-0.0569 0.180523,-0.08544 0.153771,-0.06905 0.472294,-0.06785 0.624645,-0.215564 0.445513,-0.431958 0.152372,-0.950282 0.152372,-1.475289 0,-0.06833 -0.02149,-0.174799 0.0079,-0.238204 0.08853,-0.191142 0.319808,-0.09024 0.460461,-0.17442 0.03994,-0.0239 0.0633,-0.0702 0.103353,-0.0939 0.131296,-0.0777 0.402279,-0.0076 0.548853,-0.03603 0.09889,-0.0192 0.169172,-0.08939 0.258677,-0.119692 0.300069,-0.101589 0.58431,0.109933 0.702603,0.370298 0.07035,0.154853 0.06949,0.321406 0.141938,0.477195 0.06804,0.146297 0.167035,0.282132 0.233085,0.427979 0.03193,0.07051 0.0027,0.159839 0.03504,0.226589 0.0209,0.04317 0.100372,-0.02014 0.143906,0 0.07184,0.03324 0.12902,0.09176 0.194107,0.13682 0.294871,0.204125 0.541314,0.579362 0.569523,0.941593 0.01433,0.184007 0.01498,0.387359 -0.03878,0.564996 -0.0179,0.05915 -0.06037,0.544976 -0.0376,0.557908 0.03639,0.02067 0.107389,-0.02017 0.144103,0 0.105322,0.05788 0.174555,0.182919 0.270096,0.255331 0.09946,0.07538 0.244304,0.128162 0.320886,0.216943 0.05973,0.06924 0.120003,0.262218 0.143119,0.338801 0.02479,0.08215 0.01673,0.388054 0.01673,0.260055 0,-1.045669 0.01635,-2.109699 -0.150797,-3.135234"
       id="path9" />
  </g>
</svg>
